<svg width="32" height="32" viewBox="0 0 256 256" fill="none" xmlns="http://www.w3.org/2000/svg" preserveAspectRatio="xMidYMid meet" aria-hidden="true" role="img" class="iconify iconify--logos">
<rect x="12" y="7" width="234" height="237" rx="51" fill="#44125B"/>
<path d="M34.488 146.136L12.408 124.344L34.488 102.552H48.312L26.136 124.344L48.312 146.136H34.488ZM202.264 68.376L176.152 175.8H165.4L191.416 68.376H202.264ZM210.008 102.552H223.832L245.912 124.344L223.832 146.136H210.008L232.184 124.344L210.008 102.552Z" fill="white"/>
<path d="M123.8 168L103.36 130.9H97.62V168H73.68V69.72H113.86C121.607 69.72 128.187 71.0733 133.6 73.78C139.107 76.4867 143.213 80.22 145.92 84.98C148.627 89.6467 149.98 94.8733 149.98 100.66C149.98 107.193 148.113 113.027 144.38 118.16C140.74 123.293 135.327 126.933 128.14 129.08L150.82 168H123.8ZM97.62 113.96H112.46C116.847 113.96 120.113 112.887 122.26 110.74C124.5 108.593 125.62 105.56 125.62 101.64C125.62 97.9067 124.5 94.9667 122.26 92.82C120.113 90.6733 116.847 89.6 112.46 89.6H97.62V113.96Z" fill="white"/>
</svg>
